<?xml version="1.0" encoding="UTF-8" standalone="no"?>
<svg
   xmlns:dc="http://purl.org/dc/elements/1.1/"
   xmlns:cc="http://creativecommons.org/ns#"
   xmlns:rdf="http://www.w3.org/1999/02/22-rdf-syntax-ns#"
   xmlns:svg="http://www.w3.org/2000/svg"
   xmlns="http://www.w3.org/2000/svg"
   xmlns:sodipodi="http://sodipodi.sourceforge.net/DTD/sodipodi-0.dtd"
   xmlns:inkscape="http://www.inkscape.org/namespaces/inkscape"
   width="145"
   height="56.222488"
   viewBox="0 0 38.364582 14.875534"
   version="1.1"
   id="svg16"
   inkscape:version="1.0.1 (c497b03c, 2020-09-10)"
   sodipodi:docname="bd.svg">
  <defs
     id="defs10" />
  <sodipodi:namedview
     id="base"
     pagecolor="#00ffff"
     bordercolor="#666666"
     borderopacity="1.0"
     inkscape:pageopacity="0"
     inkscape:pageshadow="2"
     inkscape:zoom="0.35"
     inkscape:cx="198.21428"
     inkscape:cy="90.968385"
     inkscape:document-units="px"
     inkscape:current-layer="layer1"
     inkscape:document-rotation="0"
     showgrid="false"
     units="px"
     lock-margins="true"
     fit-margin-top="0.5"
     fit-margin-left="0.5"
     fit-margin-right="0.5"
     fit-margin-bottom="0.5"
     inkscape:window-width="1440"
     inkscape:window-height="872"
     inkscape:window-x="0"
     inkscape:window-y="28"
     inkscape:window-maximized="0" />
  <metadata
     id="metadata13">
    <rdf:RDF>
      <cc:Work
         rdf:about="">
        <dc:format>image/svg+xml</dc:format>
        <dc:type
           rdf:resource="http://purl.org/dc/dcmitype/StillImage" />
        <dc:title></dc:title>
      </cc:Work>
    </rdf:RDF>
  </metadata>
  <g
     inkscape:label="Layer 1"
     inkscape:groupmode="layer"
     id="layer1"
     transform="translate(-53.389138,-124.09795)">
    <g
       id="g460"
       transform="translate(-183.27045,-173.26747)">
      <path
         style="fill:#ffffff;fill-opacity:1;fill-rule:nonzero;stroke:none;stroke-width:0.352778"
         d="m 251.40046,304.80368 c 0,4.0349 -3.27009,7.30498 -7.30498,7.30498 -4.03352,0 -7.3036,-3.27008 -7.3036,-7.30498 0,-4.03489 3.27008,-7.30498 7.3036,-7.30498 4.03489,0 7.30498,3.27009 7.30498,7.30498"
         id="path140" />
      <path
         style="fill:#1c519c;fill-opacity:1;fill-rule:nonzero;stroke:none;stroke-width:0.352778"
         d="M 269.14959,300.99616 H 267.467 v 7.6674 h 1.68259 c 2.56453,0 3.99631,-1.51722 3.99631,-3.8337 0,-2.33439 -1.40697,-3.8337 -3.99631,-3.8337 m 0.11162,9.26731 h -2.67477 c -0.4892,0 -0.88057,-0.36932 -0.88057,-0.88057 v -9.12123 c 0,-0.48921 0.39137,-0.86541 0.88057,-0.86541 h 2.67477 c 3.627,0 5.63067,2.43223 5.63067,5.4336 0,3.00275 -2.02434,5.43361 -5.63067,5.43361 m -8.64719,-4.94441 h -3.21359 v 3.32935 h 3.21359 c 1.28571,0 1.87689,-0.83234 1.87689,-1.66468 0,-0.83233 -0.58291,-1.66467 -1.87689,-1.66467 m -0.39963,-4.3229 h -2.81396 v 2.74092 h 2.81396 c 1.11621,0 1.64124,-0.62012 1.64124,-1.37115 0,-0.76619 -0.49334,-1.36977 -1.64124,-1.36977 m 0.33624,9.26731 h -4.03076 c -0.49058,0 -0.86541,-0.39137 -0.86541,-0.88057 v -9.12123 c 0,-0.48921 0.37483,-0.86541 0.86541,-0.86541 h 3.76893 c 2.07257,0 3.31143,1.20578 3.31143,2.77261 0,1.58337 -0.96738,2.14836 -1.305,2.26963 0.52365,0.13229 1.94165,0.73174 1.94165,2.71336 0,1.69636 -1.36839,3.11161 -3.68625,3.11161"
         id="path142" />
      <path
         style="fill:#e6421e;fill-opacity:1;fill-rule:nonzero;stroke:none;stroke-width:0.352778"
         d="m 246.46157,302.80828 c 0.0124,0 0.0248,-0.003 0.0372,-0.006 0.0303,-0.008 4.23608,-1.04731 4.23608,-1.04731 -0.57877,-1.26091 -1.50757,-2.3275 -2.66099,-3.07854 0,0 -1.63573,4.0349 -1.644,4.05419 -0.007,0.0179 -0.008,0.0276 -0.008,0.0372 0,0.0221 0.0179,0.04 0.04,0.04 m -1.52824,-0.99907 c 0.007,0.0344 0.0262,0.0455 0.0441,0.0455 0.0193,0 0.0331,-0.0124 0.0524,-0.0331 0.0978,-0.10335 2.99861,-3.17362 2.99861,-3.17362 -1.12861,-0.72209 -2.46807,-1.14377 -3.90674,-1.14928 0,0 0.77309,4.10931 0.81167,4.3105 m 2.26825,2.61138 c 0.0248,0.008 4.12722,1.40836 4.12722,1.40836 0.0469,-0.33486 0.0717,-0.678 0.0717,-1.02526 0,-1.06798 -0.23013,-2.08359 -0.64216,-2.99724 0,0 -3.55121,2.5039 -3.57188,2.52044 -0.0221,0.0152 -0.0317,0.0289 -0.0317,0.0455 0,0.0289 0.022,0.04 0.0469,0.0482 m -5.43222,-1.65226 c 0,-0.01 -0.001,-0.0193 -0.008,-0.0372 -0.008,-0.0193 -1.644,-4.05419 -1.644,-4.05419 -1.15341,0.75103 -2.08221,1.81763 -2.66099,3.07854 0,0 4.20577,1.03904 4.23609,1.04731 0.0138,0.003 0.0248,0.005 0.0372,0.005 0.022,0 0.04,-0.0179 0.04,-0.04 m 2.29995,-5.26962 c -1.43867,0.005 -2.77813,0.42719 -3.90674,1.14928 0,0 2.90077,3.07027 2.99861,3.17362 0.0193,0.0207 0.0345,0.0331 0.0524,0.0331 0.0179,0 0.0386,-0.011 0.0441,-0.0455 0.0386,-0.20119 0.81167,-4.3105 0.81167,-4.3105 m -3.07992,6.92189 c -0.0248,0.008 -4.12722,1.40835 -4.12722,1.40835 -0.0469,-0.33486 -0.0703,-0.67799 -0.0703,-1.02526 0,-1.06798 0.22875,-2.08359 0.64078,-2.99723 0,0 3.55121,2.50389 3.57188,2.52043 0.0221,0.0152 0.0317,0.0289 0.0317,0.0455 0,0.0289 -0.022,0.04 -0.0469,0.0482"
         id="path144" />
      <path
         style="fill:#e6421e;fill-opacity:1;fill-rule:nonzero;stroke:none;stroke-width:0.352778"
         d="m 244.09548,312.10866 c 3.66145,0 6.69313,-2.69268 7.2223,-6.20531 l -2.72163,0.37896 c -0.0427,0.007 -0.0593,0.0289 -0.0703,0.0579 -0.53881,1.57235 -1.89894,2.76986 -3.58566,3.07579 0.64217,-0.31282 1.08452,-0.97152 1.08452,-1.73496 0,-1.06522 -0.86403,-1.92787 -1.92925,-1.92787 -1.06523,0 -1.92788,0.86265 -1.92788,1.92787 0,0.76344 0.44235,1.42214 1.08452,1.73496 -1.68672,-0.30593 -3.04684,-1.50344 -3.58703,-3.07579 -0.01,-0.0289 -0.0276,-0.051 -0.0689,-0.0579 l -2.723,-0.37896 c 0.53054,3.51263 3.56223,6.20531 7.2223,6.20531"
         id="path146" />
    </g>
  </g>
</svg>
