<svg width="90" height="28" viewBox="0 0 90 28" fill="none" xmlns="http://www.w3.org/2000/svg">
<path d="M0.248047 0.0917969V4.83077L9.63691 7.88836L16.9054 5.52072V5.51581L0.248047 0.0917969Z" fill="#8BD3E6"/>
<path d="M0.248047 6.20459V10.9423L0.251715 10.9436L7.52875 8.57469L0.248047 6.20459Z" fill="#8BD3E6"/>
<path d="M9.63672 13.9997L16.9052 11.6333V11.6284L14.8044 10.9434L7.52734 13.3135L9.63672 13.9997Z" fill="#8BD3E6"/>
<path d="M9.63672 20.1125L16.9052 17.7449V17.74L14.8044 17.0562L7.52734 19.425L9.63672 20.1125Z" fill="#8BD3E6"/>
<path d="M5.41938 14L0.248047 15.6838V17.0552L0.251715 17.0564L7.52753 14.6863L5.41938 14Z" fill="#8BD3E6"/>
<path d="M0.248047 17.0574V21.7964L7.52875 19.425L0.251715 17.0562L0.248047 17.0574Z" fill="#343741"/>
<path d="M7.52832 14.6863L14.8041 17.0564L16.905 16.3713V16.3664L9.63647 14L7.52832 14.6863Z" fill="#343741"/>
<path d="M16.9052 16.3674V11.6333L9.63672 13.9997L16.9052 16.3674Z" fill="#0084D4"/>
<path d="M0.251953 17.0561L7.52899 19.425L14.8048 17.0561L7.52899 14.6873L0.251953 17.0561Z" fill="#0084D4"/>
<path d="M0.248047 23.1692V27.9081L16.9054 22.4841V22.4792L9.63691 20.1128L0.248047 23.1692Z" fill="#343741"/>
<path d="M16.9052 22.4792V17.7451L9.63672 20.1128L16.9052 22.4792Z" fill="#0084D4"/>
<path d="M7.52832 8.5747L14.8041 10.9436L16.905 10.2598V10.2548L9.63647 7.88843L7.52832 8.5747Z" fill="#343741"/>
<path d="M7.52875 13.3135L0.251715 10.9434L0.248047 10.9446V12.3159L5.41938 13.9997L7.52875 13.3135Z" fill="#343741"/>
<path d="M16.9052 10.2548V5.52075L9.63672 7.8884L16.9052 10.2548Z" fill="#0084D4"/>
<path d="M0.251953 10.9436L7.52899 13.3137L14.8048 10.9436L7.52899 8.57471L0.251953 10.9436Z" fill="#0084D4"/>
<path d="M0.248047 12.3159V15.6836L5.41938 13.9997L0.248047 12.3159Z" fill="#0084D4"/>
<path d="M22.3066 17.6409V10.522H26.4349V11.6776H23.6542V13.348H26.0766L25.8418 14.5244H23.6542V16.4852H26.4435V17.6409H22.3066Z" fill="#0084D4"/>
<path d="M33.8998 17.6409L30.553 12.7401V17.6409H29.2861V10.522H30.5738L33.7666 15.185V10.522H35.0322V17.6409H33.8998Z" fill="#0084D4"/>
<path d="M41.3962 17.6715H40.0572L37.3682 10.4583H38.8845L40.7786 15.9068L42.6422 10.5208H44.0619L41.3962 17.6715Z" fill="#0084D4"/>
<path d="M56.0075 17.723C55.143 17.723 54.402 17.5282 53.7734 17.2292L53.9789 15.9804C54.5768 16.3309 55.3167 16.6103 56.0271 16.6103C56.6556 16.6103 57.0885 16.3113 57.0885 15.7426C57.0885 15.2169 56.8415 15 55.8119 14.5564C54.4313 13.989 53.8762 13.5355 53.8762 12.4301C53.8762 11.1716 54.8446 10.4399 56.1726 10.4399C56.9748 10.4399 57.5312 10.6054 58.046 10.8725L57.8406 12.1103C57.3258 11.7696 56.718 11.5539 56.1616 11.5539C55.4817 11.5539 55.1834 11.8848 55.1834 12.3174C55.1834 12.7721 55.4096 12.989 56.3976 13.4019C57.8601 14 58.3957 14.5049 58.3957 15.6091C58.3957 17.0012 57.3771 17.723 56.0075 17.723Z" fill="#0084D4"/>
<path d="M64.1022 11.7083V17.6409H62.7327V11.7083H60.6221V10.5208H66.274L66.0074 11.7083H64.1022Z" fill="#0084D4"/>
<path d="M73.3586 17.6409L70.0129 12.7401V17.6409H68.7461V10.522H70.0337L73.2253 15.185V10.522H74.4922V17.6409H73.3586Z" fill="#0084D4"/>
<path d="M87.6511 11.7083V17.6409H86.2815V11.7083H84.1709V10.5208H89.7531L89.4865 11.7083H87.6511Z" fill="#0084D4"/>
<path d="M46.6826 17.6262V10.5061H50.8121V11.6617H48.0326V13.3333H50.4538L50.2178 14.5098H48.0326V16.4706H50.8206V17.6262H46.6826Z" fill="#0084D4"/>
<path d="M77.6533 17.6445V10.5244H81.7828V11.6788H79.0033V13.3504H81.4245L81.1897 14.5281H79.0033V16.4889H81.7914V17.6445H77.6533Z" fill="#0084D4"/>
</svg>