<?xml version="1.0" encoding="UTF-8" standalone="no"?>
<!-- Measurement Incorporated logo mark — M + I + caliper symbol
     Cropped from full horizontal logo (measurementinc.com) -->
<svg xmlns="http://www.w3.org/2000/svg" version="1.1"
     width="200" height="200"
     viewBox="-2 -2 98 41">
  <!-- M mark (polygon) -->
  <polygon fill="#00467F"
           points="36 18.6 36 36.5 45 36.5 45 0.6 36 0.6 27 18.9 26.9 0.6 17.9 0.6 0 36.5 9.1 36.5 18 18.6 17.9 36.5 26.9 36.5"/>
  <!-- I bar (rect) -->
  <rect fill="#00467F" height="36.1" width="8.9" x="54" y="0.4"/>
  <!-- Caliper symbol (multiple paths forming the measurement tool icon) -->
  <path fill="#00467F" d="M77.3 25.6c0 0-2.7-3.2-3.8-4.8 -1.1-1.6-1.8-3.7-1.2-5l7.8-14.7c1.2-1.7 2.4 0.1 1.7 1.5l-7.8 13C73.1 17.6 73.2 17.7 77.3 25.6z"/>
  <path fill="#00467F" d="M89.7 15.8L82.3 2c0 0.2-0.1 0.5-0.2 0.8l-0.9 1.5L88 15.6c0.9 1.9 0.9 2.1-3.2 10 0 0 2.7-3.2 3.8-4.8C89.7 19.2 90.3 17.1 89.7 15.8z"/>
  <path fill="#00467F" d="M77.3 12.2c0 0 3.5 2.1 5 3.3 1.6 1.1 2.9 2.9 2.7 4.3l-3 16.6c-0.7 2-2.3 0.8-2-0.8l3.4-15C83.7 18.4 83.6 18.3 77.3 12.2z"/>
  <path fill="#00467F" d="M84.6 12.2c0 0-1.7 1.1-3.3 2.1 0.2 0.2 0.5 0.3 0.7 0.5C82.7 14.1 83.6 13.2 84.6 12.2z"/>
  <path fill="#00467F" d="M78.5 20.6c-0.2-1.6-0.2-2.1 2.2-4.5 -0.2-0.3-0.5-0.5-0.8-0.8 -0.1 0.1-0.2 0.2-0.3 0.2 -1.6 1.1-2.9 2.9-2.7 4.3l2.8 15.3 1.1-4.7L78.5 20.6z"/>
  <!-- Registered trademark circle -->
  <path fill="#00467F" d="M88.3 2.9c0-1.5 1.2-2.7 2.7-2.7l0 0c1.5 0 2.7 1.2 2.7 2.7l0 0c0 1.5-1.2 2.7-2.7 2.7l0 0C89.5 5.6 88.3 4.4 88.3 2.9L88.3 2.9zM88.8 2.9c0 1.2 1 2.2 2.2 2.2l0 0c1.2 0 2.2-1 2.2-2.2l0 0c0-1.2-1-2.2-2.2-2.2l0 0C89.8 0.7 88.8 1.7 88.8 2.9L88.8 2.9z"/>
  <path fill="#00467F" d="M90.1 1.2h0.8c0.6 0 1.3 0.1 1.3 0.9 0 0.5-0.3 0.8-0.8 0.9l0.9 1.5h-0.5L90.9 3h-0.5v1.5h-0.4V1.2zM90.4 2.7h0.3c0.4 0 1 0 1-0.5 0-0.5-0.4-0.5-0.8-0.5h-0.5V2.7z"/>
</svg>
