<svg viewBox="0 0 145 50" fill="none" xmlns="http://www.w3.org/2000/svg">
  <g clip-path="url(#clip0_1479_29778)">
    <path
      d="M4.04235 44.6045C2.6612 44.6045 1.9401 45.3734 1.9401 46.583C1.9401 47.7926 2.66883 48.571 4.14727 48.571C4.56887 48.571 5.01144 48.5119 5.5971 48.3497V49.7902C5.16406 49.8951 4.56887 50 3.78291 50C1.37352 50 0.164062 48.6283 0.164062 46.6021C0.164062 44.1352 1.96872 43.1851 3.77337 43.1851C4.41625 43.1851 4.97329 43.2614 5.48264 43.3949V44.8526C5.05151 44.719 4.58031 44.6045 4.04235 44.6045Z"
      fill="#E1AF00" style="fill:#E1AF00;fill:color(display-p3 0.8824 0.6863 0.0000);fill-opacity:1;" />
    <path
      d="M13.6874 45.4478C13.6874 44.9479 13.3803 44.7953 12.8423 44.7953H12.0545V46.1881H12.8137C13.3784 46.1881 13.6855 45.9496 13.6855 45.4497M14.0137 49.8474L12.8233 47.5999H12.0545V49.8474H10.3757V43.3491H12.8519C14.6375 43.3491 15.3853 44.0302 15.3853 45.3066C15.3853 45.9591 14.9923 46.5849 14.3589 46.9951L15.9328 49.8474H14.0137Z"
      fill="#E1AF00" style="fill:#E1AF00;fill:color(display-p3 0.8824 0.6863 0.0000);fill-opacity:1;" />
    <path
      d="M20.395 43.3472V49.8454H24.7331V48.3764H22.0852V47.2526H24.3496V45.7854H22.0852V44.8143H24.6949V43.3472H20.395Z"
      fill="#E1AF00" style="fill:#E1AF00;fill:color(display-p3 0.8824 0.6863 0.0000);fill-opacity:1;" />
    <path
      d="M32.1308 44.9689H32.1595L32.831 47.2431H31.4765L32.1289 44.9689H32.1308ZM31.219 43.3472L29.0977 49.8473H30.7859L31.1141 48.6759H33.2068L33.5425 49.8473H35.309L33.1972 43.3472H31.219Z"
      fill="#E1AF00" style="fill:#E1AF00;fill:color(display-p3 0.8824 0.6863 0.0000);fill-opacity:1;" />
    <path d="M38.7427 43.3472V44.8143H40.555V49.8454H42.2547V44.8143H44.0593V43.3472H38.7427Z" fill="#E1AF00"
      style="fill:#E1AF00;fill:color(display-p3 0.8824 0.6863 0.0000);fill-opacity:1;" />
    <path d="M50.2576 43.3472H48.5769V49.8473H50.2576V43.3472Z" fill="#E1AF00"
      style="fill:#E1AF00;fill:color(display-p3 0.8824 0.6863 0.0000);fill-opacity:1;" />
    <path
      d="M59.2884 43.3472V46.7165H59.2693L57.1575 43.3472H55.2957V49.8454H56.9649V46.2071H56.9744L59.2503 49.8454H60.9595V43.3472H59.2884Z"
      fill="#E1AF00" style="fill:#E1AF00;fill:color(display-p3 0.8824 0.6863 0.0000);fill-opacity:1;" />
    <path
      d="M69.4982 44.595C68.3173 44.595 67.4722 45.1521 67.4722 46.6002C67.4722 47.8002 68.0674 48.5882 69.151 48.5882C69.4486 48.5882 69.6412 48.5787 69.8416 48.55V46.2453H71.5222V49.5002C70.7744 49.8455 69.8721 50 68.9583 50C67.1536 50 65.7229 48.9908 65.7229 46.6879C65.7229 44.3851 67.2204 43.1851 69.3036 43.1851C70.0609 43.1851 70.6962 43.3301 71.1846 43.5685V45.0376C70.7057 44.7781 70.101 44.5969 69.4963 44.5969"
      fill="#E1AF00" style="fill:#E1AF00;fill:color(display-p3 0.8824 0.6863 0.0000);fill-opacity:1;" />
    <path
      d="M86.7894 44.9784C86.28 44.7781 85.6085 44.5949 85.1011 44.5949C84.6776 44.5949 84.3609 44.7285 84.3609 45.0738C84.3609 46.0907 87.106 45.6405 87.106 47.8765C87.106 49.4028 85.8775 49.9981 84.5631 49.9981C83.9088 49.9981 83.2468 49.855 82.7012 49.6146V48.0787C83.2583 48.3668 84.0061 48.5882 84.5727 48.5882C85.0534 48.5882 85.3987 48.4336 85.3987 48.031C85.3987 46.9378 82.6631 47.4358 82.6631 45.1997C82.6631 43.7021 83.8344 43.1831 85.082 43.1831C85.6772 43.1831 86.2819 43.2976 86.7913 43.4807V44.9784H86.7894Z"
      fill="#E1AF00" style="fill:#E1AF00;fill:color(display-p3 0.8824 0.6863 0.0000);fill-opacity:1;" />
    <path
      d="M94.5344 49.998C92.8156 49.998 91.7893 49.1433 91.7893 47.2335V43.3452H93.4604V47.4052C93.4604 48.2294 93.9221 48.5766 94.5936 48.5766C95.2651 48.5766 95.7057 48.2294 95.7057 47.4243V43.3452H97.3769V47.2621C97.3769 49.0288 96.3009 49.998 94.5364 49.998"
      fill="#E1AF00" style="fill:#E1AF00;fill:color(display-p3 0.8824 0.6863 0.0000);fill-opacity:1;" />
    <path
      d="M105.992 44.6045C104.611 44.6045 103.89 45.3734 103.89 46.583C103.89 47.7926 104.619 48.571 106.097 48.571C106.519 48.571 106.961 48.5119 107.547 48.3497V49.7902C107.114 49.8951 106.519 50 105.733 50C103.323 50 102.114 48.6283 102.114 46.6021C102.114 44.1352 103.918 43.1851 105.723 43.1851C106.366 43.1851 106.923 43.2614 107.432 43.3949V44.8526C107.001 44.719 106.53 44.6045 105.992 44.6045Z"
      fill="#E1AF00" style="fill:#E1AF00;fill:color(display-p3 0.8824 0.6863 0.0000);fill-opacity:1;" />
    <path
      d="M115.942 44.6045C114.561 44.6045 113.84 45.3734 113.84 46.583C113.84 47.7926 114.569 48.571 116.047 48.571C116.469 48.571 116.911 48.5119 117.497 48.3497V49.7902C117.064 49.8951 116.469 50 115.683 50C113.273 50 112.064 48.6283 112.064 46.6021C112.064 44.1352 113.869 43.1851 115.673 43.1851C116.316 43.1851 116.873 43.2614 117.383 43.3949V44.8526C116.951 44.719 116.48 44.6045 115.942 44.6045Z"
      fill="#E1AF00" style="fill:#E1AF00;fill:color(display-p3 0.8824 0.6863 0.0000);fill-opacity:1;" />
    <path
      d="M122.276 43.3472V49.8454H126.616V48.3764H123.966V47.2526H126.23V45.7854H123.966V44.8143H126.576V43.3472H122.276Z"
      fill="#E1AF00" style="fill:#E1AF00;fill:color(display-p3 0.8824 0.6863 0.0000);fill-opacity:1;" />
    <path
      d="M135.395 44.9784C134.885 44.7781 134.214 44.5949 133.707 44.5949C133.283 44.5949 132.966 44.7285 132.966 45.0738C132.966 46.0907 135.712 45.6405 135.712 47.8765C135.712 49.4028 134.483 49.9981 133.169 49.9981C132.514 49.9981 131.852 49.855 131.307 49.6146V48.0787C131.864 48.3668 132.612 48.5882 133.178 48.5882C133.659 48.5882 134.004 48.4336 134.004 48.031C134.004 46.9378 131.269 47.4358 131.269 45.1997C131.269 43.7021 132.44 43.1831 133.687 43.1831C134.283 43.1831 134.887 43.2976 135.397 43.4807V44.9784H135.395Z"
      fill="#E1AF00" style="fill:#E1AF00;fill:color(display-p3 0.8824 0.6863 0.0000);fill-opacity:1;" />
    <path
      d="M144.212 44.9784C143.703 44.7781 143.031 44.5949 142.524 44.5949C142.1 44.5949 141.784 44.7285 141.784 45.0738C141.784 46.0907 144.529 45.6405 144.529 47.8765C144.529 49.4028 143.3 49.9981 141.986 49.9981C141.331 49.9981 140.669 49.855 140.124 49.6146V48.0787C140.681 48.3668 141.429 48.5882 141.995 48.5882C142.476 48.5882 142.821 48.4336 142.821 48.031C142.821 46.9378 140.086 47.4358 140.086 45.1997C140.086 43.7021 141.257 43.1831 142.505 43.1831C143.1 43.1831 143.705 43.2976 144.214 43.4807V44.9784H144.212Z"
      fill="#E1AF00" style="fill:#E1AF00;fill:color(display-p3 0.8824 0.6863 0.0000);fill-opacity:1;" />
    <path
      d="M12.52 0.465576V19.7581H12.4265L5.37199 0.465576H0V34.1951H5.23082V13.1225H5.3243L12.7051 34.1951H17.7508V0.465576H12.52Z"
      fill="#14435B" style="fill:#14435B;fill:color(display-p3 0.0784 0.2627 0.3569);fill-opacity:1;" />
    <path
      d="M35.0381 11.724V9.10825C35.0381 6.25787 33.7314 5.04064 32.2357 5.04064C29.8989 5.04064 29.1511 6.25787 29.1511 8.77628V25.8767C29.1511 28.4008 29.8989 29.6161 32.2357 29.6161C34.338 29.6161 35.0381 28.3989 35.0381 26.2048V22.141H40.8298V26.0217C40.8298 30.7838 38.0274 34.6644 32.2357 34.6644C26.1598 34.6644 23.3594 30.7838 23.3594 26.0217V8.64273C23.3594 3.87492 26.1617 0 32.2357 0C38.3098 0 40.8298 4.20117 40.8298 9.24753V11.724H35.0381Z"
      fill="#14435B" style="fill:#14435B;fill:color(display-p3 0.0784 0.2627 0.3569);fill-opacity:1;" />
    <path
      d="M77.8082 0.360596L75.4789 9.19793H75.4407L73.1096 0.360596H69.5117V13.8246H71.7113V3.23006H71.7494L74.4907 13.8246H76.4327L79.1702 3.23006H79.2084V13.8246H81.4079V0.360596H77.8082Z"
      fill="#14435B" style="fill:#14435B;fill:color(display-p3 0.0784 0.2627 0.3569);fill-opacity:1;" />
    <path
      d="M92.3235 0.360596L89.9942 9.19793H89.958L87.623 0.360596H84.0251V13.8246H86.2266V3.23006H86.2648L89.0042 13.8246H90.9443L93.6856 3.23006H93.7256V13.8246H95.9233V0.360596H92.3235Z"
      fill="#14435B" style="fill:#14435B;fill:color(display-p3 0.0784 0.2627 0.3569);fill-opacity:1;" />
    <path
      d="M116.375 0.360596V8.3432H116.335L112.756 0.360596H109.941V13.8246H112.291V5.13413H112.329L116.263 13.8246H118.724V0.360596H116.375Z"
      fill="#14435B" style="fill:#14435B;fill:color(display-p3 0.0784 0.2627 0.3569);fill-opacity:1;" />
    <path d="M123.914 0.358643H121.339V13.8245H123.914V0.358643Z" fill="#14435B"
      style="fill:#14435B;fill:color(display-p3 0.0784 0.2627 0.3569);fill-opacity:1;" />
    <path d="M125.591 0.358643V2.63475H128.596V13.8226H131.167V2.63475H134.172V0.358643H125.591Z" fill="#14435B"
      style="fill:#14435B;fill:color(display-p3 0.0784 0.2627 0.3569);fill-opacity:1;" />
    <path
      d="M141.951 0.360596L139.771 5.78472L137.512 0.360596H134.769L138.445 8.37754V13.8246H141.02V8.37754L144.693 0.360596H141.951Z"
      fill="#14435B" style="fill:#14435B;fill:color(display-p3 0.0784 0.2627 0.3569);fill-opacity:1;" />
    <path
      d="M50.9652 9.83517C50.9652 11.3271 51.6158 11.7354 52.6459 11.7354C53.676 11.7354 54.3227 11.3271 54.3227 9.83517V8.93846H56.8962V9.49938C56.8962 12.821 55.143 14.0134 52.644 14.0134C50.1449 14.0134 48.3899 12.8191 48.3899 9.49938V4.68769C48.3899 1.36987 50.143 0.175537 52.644 0.175537C55.1449 0.175537 56.8962 1.37178 56.8962 4.68769V4.72394H54.3227V4.3519C54.3227 2.85803 53.6684 2.44783 52.6459 2.44783C51.6234 2.44783 50.9652 2.85803 50.9652 4.3519V9.83517Z"
      fill="#14435B" style="fill:#14435B;fill:color(display-p3 0.0784 0.2627 0.3569);fill-opacity:1;" />
    <path
      d="M58.7656 4.68574C58.7656 1.36792 60.5169 0.173584 63.0178 0.173584C65.5188 0.173584 67.2681 1.36601 67.2681 4.68574V9.49934C67.2681 12.8191 65.5169 14.0134 63.0178 14.0134C60.5188 14.0134 58.7656 12.8191 58.7656 9.49934V4.68574ZM61.3391 9.83512C61.3391 11.3271 61.9915 11.7316 63.0178 11.7316C64.0441 11.7316 64.6966 11.3271 64.6966 9.83512V4.34995C64.6966 2.85798 64.0422 2.44588 63.0178 2.44588C61.9934 2.44588 61.3391 2.85798 61.3391 4.34995V9.83512Z"
      fill="#14435B" style="fill:#14435B;fill:color(display-p3 0.0784 0.2627 0.3569);fill-opacity:1;" />
    <path
      d="M101.116 0.358643V9.77788C101.116 11.0619 101.675 11.7354 102.922 11.7354C104.17 11.7354 104.752 11.0619 104.752 9.77788V0.358643H107.323V9.79505C107.323 12.7618 105.57 14.0115 102.921 14.0115C100.271 14.0115 98.5405 12.7618 98.5405 9.79505V0.358643H101.114H101.116Z"
      fill="#14435B" style="fill:#14435B;fill:color(display-p3 0.0784 0.2627 0.3569);fill-opacity:1;" />
    <path d="M75.3357 16.5242V33.6742H83.8878V30.7761H78.6131V16.5242H75.3357Z" fill="#14435B"
      style="fill:#14435B;fill:color(display-p3 0.0784 0.2627 0.3569);fill-opacity:1;" />
    <path d="M85.8774 16.5242V33.6742H94.4295V30.7761H89.1548V16.5242H85.8774Z" fill="#14435B"
      style="fill:#14435B;fill:color(display-p3 0.0784 0.2627 0.3569);fill-opacity:1;" />
    <path
      d="M96.4211 16.5242V33.6742H105.637V30.7761H99.7004V26.2677H104.044V23.3659H99.7004V19.4242H105.397V16.5242H96.4211Z"
      fill="#14435B" style="fill:#14435B;fill:color(display-p3 0.0784 0.2627 0.3569);fill-opacity:1;" />
    <path
      d="M121.494 16.5242V33.6742H130.712V30.7761H124.773V26.2677H129.121V23.3659H124.773V19.4242H130.473V16.5242H121.494Z"
      fill="#14435B" style="fill:#14435B;fill:color(display-p3 0.0784 0.2627 0.3569);fill-opacity:1;" />
    <path
      d="M51.9248 28.5915C51.9248 30.4937 52.7566 31.0164 54.0614 31.0164C55.3663 31.0164 56.1999 30.4937 56.1999 28.5915V27.4525H59.4792V28.1641C59.4792 32.3939 57.2434 33.9126 54.0614 33.9126C50.8794 33.9126 48.6475 32.3939 48.6475 28.1641V22.0341C48.6475 17.8081 50.8794 16.2856 54.0614 16.2856C57.2434 16.2856 59.4792 17.8081 59.4792 22.0341V22.0837H56.1999V21.6086C56.1999 19.7065 55.3663 19.1856 54.0614 19.1856C52.7566 19.1856 51.9248 19.7065 51.9248 21.6086V28.5915Z"
      fill="#14435B" style="fill:#14435B;fill:color(display-p3 0.0784 0.2627 0.3569);fill-opacity:1;" />
    <path
      d="M61.8506 22.038C61.8506 17.8082 64.0826 16.2896 67.2645 16.2896C70.4465 16.2896 72.6785 17.8082 72.6785 22.038V28.1642C72.6785 32.394 70.4484 33.9127 67.2645 33.9127C64.0806 33.9127 61.8506 32.394 61.8506 28.1642V22.038ZM65.128 28.5954C65.128 30.4919 65.9597 31.0165 67.2645 31.0165C68.5694 31.0165 69.403 30.4919 69.403 28.5954V21.6106C69.403 19.7085 68.5713 19.1857 67.2645 19.1857C65.9578 19.1857 65.128 19.7085 65.128 21.6106V28.5954Z"
      fill="#14435B" style="fill:#14435B;fill:color(display-p3 0.0784 0.2627 0.3569);fill-opacity:1;" />
    <path
      d="M140.612 21.2997C140.067 19.6837 139.353 18.9949 138.212 18.9949C137.072 18.9949 136.408 19.7066 136.408 20.8723C136.408 23.4575 143.724 23.6521 143.724 29.019C143.724 31.9667 141.703 33.9127 138.262 33.9127C135.603 33.9127 133.533 32.4627 132.659 29.0915L135.889 28.4008C136.265 30.469 137.455 31.2054 138.426 31.2054C139.569 31.2054 140.448 30.4461 140.448 29.164C140.448 25.9339 133.132 25.8843 133.132 21.086C133.132 18.144 134.891 16.2896 138.285 16.2896C141.206 16.2896 142.985 18.0238 143.558 20.4468L140.612 21.3016V21.2997Z"
      fill="#14435B" style="fill:#14435B;fill:color(display-p3 0.0784 0.2627 0.3569);fill-opacity:1;" />
    <path
      d="M116.488 32.249C115.61 33.2468 114.658 33.9127 113.426 33.9127C110.242 33.9127 108.008 32.3921 108.008 28.1642V22.0342C108.008 17.8082 110.24 16.2876 113.426 16.2876C116.772 16.2876 118.579 18.2127 118.695 22.1067H115.42C115.42 19.8992 114.613 19.1857 113.426 19.1857C112.117 19.1857 111.286 19.7065 111.286 21.6087V28.5935C111.286 30.4918 112.116 31.0184 113.426 31.0184C114.658 31.0184 115.42 30.116 115.42 28.6431V27.5976H113.115V24.8884H118.695V33.6761H116.986L116.486 32.2509L116.488 32.249Z"
      fill="#14435B" style="fill:#14435B;fill:color(display-p3 0.0784 0.2627 0.3569);fill-opacity:1;" />
    <path d="M144.693 38.4401H0V39.4093H144.693V38.4401Z" fill="#E1AF00"
      style="fill:#E1AF00;fill:color(display-p3 0.8824 0.6863 0.0000);fill-opacity:1;" />
  </g>
  <defs>
    <clipPath id="clip0_1479_29778">
      <rect width="145" height="50" fill="white" style="fill:white;fill:white;fill-opacity:1;" />
    </clipPath>
  </defs>
</svg>