<?xml version="1.0" encoding="UTF-8" standalone="no"?>
<svg height="156.10416mm" viewBox="0 0 293.94699 156.10416" width="293.94699mm" xmlns="http://www.w3.org/2000/svg">
   <path d="m-204.61741 500.29449v-2.51354h140.49375 140.493753v2.51354 2.51354h-140.493753-140.49375zm8.46667-10.98021v-2.38125h132.02708 132.027086v2.38125 2.38125h-132.027086-132.02708zm24.65221-9.28961c-4.47527-.51977-8.9539-1.98203-12.03983-3.93096-2.17748-1.37521-5.13142-4.47901-6.36915-6.69227-1.06299-1.9008-2.03529-4.57101-2.70964-7.44139-.38336-1.63179-.46421-4.48733-.60761-21.46139-.18182-21.52133-.15722-21.21192-1.76108-22.14608-.72169-.42034-1.91309-.63824-6.39042-1.16874l-1.12448-.13323v-1.439-1.439h14.68438 14.68437v1.439 1.439l-1.12448.12678c-5.71307.64414-6.5575.85721-7.18347 1.81256-.90286 1.37794-.99499 4.0015-.87367 24.87967.0848 14.59233.21015 20.85348.43805 21.88119.94265 4.25074 4.37799 8.18421 8.67139 9.92877 3.27189 1.32949 8.94431 1.84483 13.02273 1.18312 6.94794-1.12729 12.51564-5.40751 13.8876-10.67625.78001-2.99545.98541-9.33612.8921-27.53988-.10009-19.52736-.0859-19.35704-1.69452-20.29399-.72168-.42034-1.91308-.63824-6.39042-1.16874l-1.12448-.13323v-1.439-1.439h14.79524 14.79523l1.14591 1.41748c1.05909 1.31008 5.1717 6.21385 9.99869 11.92216 1.09733 1.29769 4.0004 4.7505 6.45128 7.67292 2.45087 2.92242 4.96517 5.9088 5.58734 6.6364.62217.72761 5.016513 5.94232 9.765218 11.58826l8.634008 10.26535v-20.74642c0-12.88383-.101441-21.28132-.267668-22.15783-.441722-2.3292-1.393045-2.92044-5.288582-3.28683-3.64585-.3429-3.439584-.23087-3.439584-1.86827v-1.44322h11.509376 11.509375v1.439 1.439l-1.124479.12678c-5.845715.65909-6.620198.88196-7.241744 2.08389-.746033 1.44267-.876433 6.33443-.885283 33.20977l-.0089 27.05365-1.918229-.0147-1.918229-.0147-12.303126-14.57275c-6.766713-8.015-12.425763-14.70565-12.575663-14.8681-.1499-.16244-4.6003-5.41505-9.88979-11.67244-5.28948-6.2574-9.78368-11.5546-9.98711-11.77156-.31691-.338-.35938 2.9194-.29667 22.75417.0842 26.62136-.0843 24.80703 2.36942 25.51143 1.10339.31675 5.24864.93008 6.36888.94233.10914.001.19844.65702.19844 1.45738v1.45521h-11.64167-11.64167v-1.43415-1.43415l1.78594-.16698c3.31761-.31019 5.6908-.88132 6.32756-1.52276 1.10515-1.1133 1.16825-2.78834 1.08914-28.91175l-.0745-24.60625-.66553-1.19063c-1.13935-2.03827-3.44153-2.41594-5.03197-.82549-1.39741 1.39741-1.39057 1.29719-1.58393 23.18278-.19317 21.8635-.20367 22.02954-1.62183 25.63641-1.63656 4.16236-5.00095 7.70481-9.44641 9.94637-4.84221 2.44162-12.93701 3.48311-20.36583 2.62032zm124.83737.00038c-14.475206-1.63945-24.842447-9.43686-28.658024-21.55429-1.046033-3.32196-1.521042-6.26139-1.685716-10.43148-.750692-19.01007 8.947454-31.64921 26.610305-34.67997 4.164386-.71456 9.653342-.9182 14.184477-.52623 3.622336.31335 11.457636 1.5222 14.485938 2.23492l1.521354.35806v-.62672-.62673h13.3614584 13.3614587v1.415 1.415l-3.2411459.1535c-3.89501066.18446-4.5481559.39171-4.9295316 1.56416-.4096914 1.2595-.1884945 2.13533 5.2664123 20.85234 2.6506726 9.09506 5.2395329 17.99723 5.7530209 19.7826.513487 1.78538.9629542 3.21413.9988132 3.175.03586-.0391 3.546086-9.95332 7.800509-22.03155 4.254423-12.07823 8.008041-22.73433 8.341373-23.68021l.60606-1.71979h1.907096 1.907095l8.299239 24.20937c4.564581 13.31516 8.341709 24.32844 8.393618 24.47396.05191.14552.893569-2.1762 1.870361-5.15938.976789-2.98317 3.965355-12.09145 6.641245-20.24062 5.563262-16.94229 6.348651-19.50528 6.142064-20.04364-.214286-.5584-2.058114-.94995-5.440865-1.15541l-2.954946-.17946v-1.41544-1.41543h10.186459 10.186458v1.439 1.439l-1.124479.13608c-.618464.0748-1.871636.19968-2.784846.27744-2.829665.24091-2.856203.25768-3.727211 2.35599-.874369 2.10632-5.137971 14.60043-14.21532 41.65654l-6.061686 18.0676-1.822252-.0759-1.822254-.0759-1.485038-4.25493c-9.31817-26.69837-15.534394-44.28922-15.65194-44.29232-.131075-.003-4.512821 12.576-13.500288 38.75766l-3.3605052 9.78959-1.8575604.0772-1.8575629.0772-.4083791-1.26785c-.2246074-.69732-1.5535565-5.19692-2.9532183-9.9991-10.096852-34.64195-13.5771211-46.33413-14.4909751-48.68334-.746956-1.92017-1.272924-2.23977-3.694716-2.24506l-1.785938-.004v5.55625 5.55625h-3.143535-3.143536l-.180713-2.57968c-.289328-4.13014-1.529136-6.05074-5.041591-7.80997-4.581623-2.29472-12.467397-2.95429-17.991667-1.50482-7.539554 1.97824-13.243497 7.7849-16.112046 16.40217-1.217165 3.65644-1.734481 6.70839-1.926802 11.3673-.479332 11.61191 3.071702 20.41031 10.498223 26.01144 2.916026 2.19928 6.569705 3.74087 11.164811 4.71072 3.964686.83681 10.300655.84048 14.480172.008 3.420952-.68105 7.487111-1.97817 10.487867-3.34566 1.118267-.5096 2.077882-.92655 2.132473-.92655.05459 0 .09926 1.01084.09926 2.24632v2.24633l-1.745467.79143c-4.267332 1.9349-10.278097 3.43618-15.887319 3.96809-3.319973.31483-9.127099.30487-12.000548-.0206zm-149.48958-74.71598v-2.77812h132.02708 132.027086v2.77812 2.77813h-132.027086-132.02708zm-11.32234-11.12335c-2.0674-1.67946-3.75891-3.14522-3.75891-3.25723 0-.11202 7.59023-2.4789 16.86719-5.25974 17.51166-5.24925 56.80252-17.05332 102.904535-30.9154 14.723877-4.42722 27.039118-8.04948 27.367198-8.04948.328084 0 26.797996 7.87388 58.8220254 17.49751 32.0240296 9.62364 64.8657306 19.48847 72.9815866 21.92187 8.115829 2.4334 14.827806 4.4961 14.915489 4.58378.36322.36322-.29972 1.04957-3.594735 3.7217l-3.465725 2.81055h-139.639866-139.639868zm43.50999-6.6125c5.0708-1.53279 11.54136-3.49151 14.37902-4.3527 2.83765-.8612 11.23156-3.4047 18.65312-5.65223 45.174829-13.68067 60.766831-18.39869 64.399018-19.48668l2.486517-.74481 6.509316 1.97076c3.580122 1.08392 8.23572 2.49481 10.345772 3.13532 3.620935 1.09914 6.722806 2.03838 26.987501 8.17175 16.6957218 5.05316 35.707824 10.80976 40.745834 12.33726 2.837657.86036 8.671719 2.62932 12.964584 3.93103 4.292865 1.3017 8.656331 2.61802 9.696588 2.92517 1.799288.53125 2.378662.55506 11.89918.48908l10.007786-.0694-12.957509-3.89356c-7.126626-2.14141-24.982816-7.51125-39.680421-11.93292-14.6976043-4.42167-37.933839-11.4116-51.636079-15.53319l-24.913159-7.49379-6.70455 2.00567c-7.905575 2.36495-36.560998 10.98816-46.392038 13.96065-6.12096 1.85071-19.48284 5.87158-62.94895 18.94266-6.97295 2.09691-12.73756 3.87201-12.81024 3.94469-.0727.0727 4.34114.13213 9.80847.13213h9.9406zm32.60744-1.81605c8.38275-2.53162 26.94814-8.13608 41.256399-12.45434l26.015035-7.85139 10.232882 3.08655c5.628085 1.69761 15.293039 4.61311 21.477674 6.47888 6.184636 1.86578 15.054792 4.54158 19.711459 5.94622 4.6566671 1.40464 13.55357794 4.0936 19.7709133 5.97546l11.3042437 3.42156 3.909298-.0202 3.909296-.0202-1.5875-.47617c-.873125-.2619-5.337969-1.61337-9.921875-3.00327-4.583907-1.3899-13.2754694-4.01634-19.3145842-5.83653-6.0391148-1.82019-21.8744278-6.60034-35.1895838-10.62255l-24.209376-7.31312-7.14375 2.13461c-3.929062 1.17403-10.656094 3.19581-14.948958 4.49284-9.852121 2.97668-37.066143 11.18255-54.504163 16.43469-7.3488 2.21338-13.41107 4.07058-13.4717 4.12713-.0606.0565 1.59372.1028 3.67634.1028h3.78658z" fill="#066" stroke-width=".26458335" transform="translate(211.23199 -346.70387)"/>
</svg>
