<?xml version="1.0" encoding="UTF-8" standalone="no"?>
<!-- USPS Eagle only — cropped from full USPS color logo (public domain, US federal government work) -->
<svg
   height="200"
   viewBox="-1 -1 52 32"
   width="200"
   version="1.1"
   xmlns="http://www.w3.org/2000/svg">
  <path
     d="m 49.564,0.15016324 -42.1530001,0.002 -0.025,0.14 c 0,0 24.7810001,5.08999996 25.2720001,5.17599996 5.694,1.005 5.517,2.104 5.517,2.104 3.99,-0.02 4.48,0.141 5.178,0.723 2.098,1.7519998 -1.312,6.9159998 -1.312,6.9159998 -0.488,0.36 -37.3520001,14.596 -37.3520001,14.596 H 43.257 L 49.563,0.15116324 Z m -21.905,6.93600006 c -1.117,-0.008 -1.904,0.008 -1.994,0.002 H 5.9579999 l -4.842,22.8059998 c 0,0 14.8310001,-7.278 16.6450001,-8.21 3.717,-1.91 8.856,-4.432 13.605,-6.05 0.905,-0.306 4.782,-1.501 7.04,-1.904 0.875,-0.156 1.247,-0.305 1.236,-0.468 -0.034,-0.468 -0.914,-0.499 -2.404,-0.426 -4.547,0.214 -13.258,3.683 -15.766,5.006 L 18.641,8.9881632 h 18.087 c 0.61,-1.706 -5.717,-1.954 -9.07,-1.98 z m 9.59,2.114 c -0.131,0 -0.244,0.088 -0.396,0.295 -0.139,0.178 -0.252,0.299 -0.612,0.48 -0.558,0.2749998 -2.019,0.4289998 -2.703,0.4859998 -0.656,0.055 -0.834,0.122 -0.845,0.375 -0.007,0.227 0.097,0.356 1.039,0.356 2.166,0 6.065,-0.817 7.24,-0.443 0.62,0.198 0.122,1.303 -0.387,2.756 -0.197,0.56 0.19,0.521 0.414,0.275 0.225,-0.248 1.236,-2.099 1.346,-3.041 0.156,-1.3389998 -0.992,-1.5399998 -2.576,-1.5399998 h -2.52 z"
     fill="#15569c" />
</svg>
