<svg id="Layer_1" data-name="Layer 1" xmlns="http://www.w3.org/2000/svg" viewBox="0 0 1940 1000"><defs><style>.cls-1{fill:#4b59a7;}.cls-2{fill:#d5f532;}.cls-3{fill:#003e99;}.cls-4{fill:#50c8e8;}.cls-5{fill:#716fb3;}</style></defs><title>Multi on Light Background</title><path class="cls-1" d="M1083.76,126,1279,385.14V126h104.38V556.44h-98.24L1089.9,298.56V556.44h-105V126Z"/><path class="cls-1" d="M1749.49,246.61c-23.94-17.9-51.62-28.48-77.53-28.48-66.31,0-116.65,52.19-116.65,121,0,69.38,50.34,122.18,116.65,122.18,29.68,0,63.2-13.64,91-36l69.15,68.78c-45.47,41.42-107.93,67.27-166.24,67.27-129.56,0-226-94.56-226-221,0-124,98.86-217.36,230.25-217.36,43.44,0,88.15,13.17,125.83,35.9q5.15,3.1,10.1,6.44c.49.32,1,.65,1.45,1l-58,80.33"/><path class="cls-1" d="M1051.71,605.49V815.31h114.34v60.06H981.26V605.49Z"/><path class="cls-1" d="M1268.46,605.49V875.37H1198V605.49Z"/><path class="cls-1" d="M1369.71,605.49l67.37,195.19,67.76-195.19h72.38L1471.73,875.37h-73.15L1293.87,605.49Z"/><path class="cls-1" d="M1815.54,605.49V661.7H1673.09v50.43h128.59V768l-128.59.38v50.82h146.3v56.21H1602.63V605.49Z"/><path class="cls-2" d="M647,595A236,236,0,0,1,480.12,192.12,234.48,234.48,0,0,1,647,123c53,0,198.77,1,200.24,1l34.52.24.24,34.51c0,1.43,1,143.24,1,200.25A236,236,0,0,1,647,595Zm0-402c-91.53,0-166,74.47-166,166a165.95,165.95,0,0,0,93.54,149.4A164.3,164.3,0,0,0,647,525c91.53,0,166-74.47,166-166,0-39.31-.47-119.29-.77-165.23C765.49,193.48,683.72,193,647,193Z"/><path class="cls-3" d="M366,595A236,236,0,0,1,130,359c0-53,1-198.77,1-200.24l.24-34.52,34.51-.24c1.43,0,143.24-1,200.25-1a236,236,0,1,1,0,472ZM200.77,193.77C200.48,240.51,200,322.28,200,359c0,91.53,74.47,166,166,166s166-74.47,166-166S457.53,193,366,193C326.69,193,246.71,193.47,200.77,193.77Z"/><path class="cls-4" d="M647,878A236,236,0,1,1,883,642c0,53-1,198.77-1,200.24l-.24,34.52-34.51.24C845.82,877,704,878,647,878Zm0-402c-91.53,0-166,74.47-166,166s74.47,166,166,166c39.31,0,119.29-.47,165.23-.77.29-46.74.77-128.51.77-165.23C813,550.47,738.53,476,647,476Z"/><path class="cls-5" d="M366,878c-53,0-198.77-1-200.24-1l-34.52-.24L131,842.25c0-1.43-1-143.24-1-200.25A236,236,0,1,1,366,878ZM200.77,807.23c46.74.29,128.51.77,165.23.77,91.53,0,166-74.47,166-166S457.53,476,366,476,200,550.47,200,642C200,681.31,200.47,761.29,200.77,807.23Z"/><path class="cls-2" d="M616.61,195.77l-12.72-68.84A237.91,237.91,0,0,1,647,123v70A167.43,167.43,0,0,0,616.61,195.77Z"/><path class="cls-2" d="M647,595V525c91.53,0,166-74.47,166-166h70A236,236,0,0,1,647,595Z"/><path class="cls-2" d="M481,359H411c0-113.82,81.12-211.42,192.89-232.07l12.72,68.84A165.89,165.89,0,0,0,481,359Z"/><path class="cls-4" d="M647,878A236,236,0,0,1,411,642h70c0,91.53,74.47,166,166,166,56.77,0,198.33-1,199.75-1l.5,70C845.82,877,704,878,647,878Z"/><path class="cls-3" d="M366,595A236,236,0,0,1,130,359c0-53,1-198.77,1-200.24l.24-34.52,34.51-.24c1.43,0,143.24-1,200.25-1v70c-39.31,0-119.29.47-165.23.77C200.48,240.51,200,322.28,200,359c0,91.53,74.47,166,166,166Z"/></svg>