<?xml version="1.0" encoding="UTF-8" standalone="no"?>
<svg xmlns:rdf="http://www.w3.org/1999/02/22-rdf-syntax-ns#" xmlns="http://www.w3.org/2000/svg" xml:space="preserve" viewBox="0 0 121.25 11" version="1.1" xmlns:cc="http://creativecommons.org/ns#" xmlns:dc="http://purl.org/dc/elements/1.1/"><g transform="matrix(1.25,0,0,-1.25,0,11)"><path d="m80.678 8.4991c-1.264 0-2.1116-0.55944-2.1016-1.8984 0.012-0.773 0.077-1.2322 1.575-2.1562 1.115-0.686 1.8141-0.98438 1.8141-2.0344 0-0.892-0.44018-1.375-1.3422-1.375-1.381 0-1.4438 0.892-1.4438 1.75h-0.7125c-0.063-1.512 0.61556-2.3297 2.1266-2.3297 1.352 0 2.0562 0.67638 2.0562 2.0594 0 1.502-0.97412 1.7066-1.9281 2.3906-0.88 0.635-1.4609 0.66506-1.4609 1.8141 0 0.911 0.5285 1.2 1.3625 1.2 1.053 0 1.2904-0.58081 1.3094-1.5328h0.69843c0 1.115-0.34412 2.1125-1.9531 2.1125zm-70.824-0.0234c-2.671 0-2.6719-1.951-2.6719-4 0-2.025 0.000875-3.9984 2.6719-3.9984 1.513 0 2.3391 0.66538 2.3391 2.7344h-1.5984c-0.021-0.612 0.0094-1.5766-0.74062-1.5766-0.911 0-1.0312 0.85662-1.0312 2.8406 0 1.985 0.12025 2.8453 1.0312 2.8453 0.484 0 0.66406-0.38819 0.66406-1.4172h1.5891c0.064 1.662-0.60012 2.5719-2.2531 2.5719zm8.2047 0c-1.974 0-2.5516-0.964-2.5516-2.175-0.000001-2.306 3.2578-2.3889 3.2578-3.7859 0-0.525-0.26506-0.87969-0.81406-0.87969-0.891 0-0.92031 0.62194-0.92031 1.3609h-1.6219c-0.084-1.337 0.29087-2.5187 2.2969-2.5187 1.23 0 2.7016 0.23719 2.7016 2.2422 0 2.434-3.2594 2.304-3.2594 3.775 0 0.535 0.31194 0.82656 0.83594 0.82656 0.653 0 0.75-0.59131 0.75-1.1703h1.5781c0.106 1.62-0.67712 2.325-2.2531 2.325zm-17.945-0.1266v-7.7437h1.5125v5.6625h0.01875l2.1141-5.6625h2.1344v7.7437h-1.5109v-5.3625h-0.021875l-2.0594 5.3625h-2.1875zm20.842 0v-1.2875h1.8016v-6.4562h1.6219v6.4562h1.8v1.2875h-5.2234zm6.8812 0-2.1422-7.7437h1.5969l0.4375 1.7172h2.2109l0.42812-1.7172h1.7047l-2.1 7.7437h-2.1359zm3.7359 0v-1.2875h1.8016v-6.4562h1.6188v6.4562h1.8047v1.2875h-5.225zm5.9781 0v-7.7437h4.3094v1.1906h-2.6906v2.2641h2.4v1.1891h-2.4v1.9094h2.6031v1.1906h-4.2219zm7.7672 0v-5.375c0-1.994 1.0505-2.5187 2.2625-2.5187 1.21 0 2.2625 0.52475 2.2625 2.5187v5.375h-0.68594v-4.8672c0-1.008 0.000437-2.4469-1.5766-2.4469-1.576 0-1.5766 1.4389-1.5766 2.4469v4.8672h-0.68594zm6.5547 0v-7.7437h0.68594v6.8516l0.025 0.023437 3.1484-6.875h1.0406v7.7437h-0.68594v-6.7781l-0.02188-0.020313-3.1391 6.7984h-1.0531zm7.0578 0v-7.7437h0.6875v7.7437h-0.6875zm2.1141 0 2.1578-7.7437h0.85469l2.1453 7.7437h-0.66406l-1.9094-6.9266h-0.01875l-1.8359 6.9266h-0.72969zm6.5563 0v-7.7437h3.5797v0.57969h-2.8938v3.1078h2.6953v0.58281h-2.6953v2.8953h2.8203v0.57812h-3.5062zm5.1719 0v-7.7437h0.68438v3.7547h1.3c1.488 0 1.2634-1.49 1.2734-1.825 0.012-0.415 0.04337-1.7027 0.10938-1.9297h0.65c-0.02 0.303-0.07188 0.60256-0.07188 0.90156 0 2.768-0.06444 2.8963-1.1484 3.1203v0.021875c1.039 0.237 1.2 0.87831 1.2 1.8453 0 1.361-0.37206 1.8547-1.8641 1.8547h-2.1328zm11.811 0v-7.7437h0.68594v7.7437h-0.68594zm2.1672 0v-0.57812h1.8844v-7.1656h0.69062v7.1656h1.8859v0.57812h-4.4609zm5.2344 0 2.1906-4.525v-3.2187h0.68594v3.2187l2.2078 4.525h-0.68594l-1.8547-3.85-1.7703 3.85h-0.77344zm-18.527-0.5781h1.4047c0.803 0 1.2219-0.20562 1.2219-1.2656 0-1.3-0.48194-1.5656-1.5109-1.5656h-1.1156v2.8312zm-44.664-0.91406h0.02187l0.78125-3.3469h-1.5422l0.73906 3.3469z" fill="#c00"/></g></svg>
